<svg width="120" height="40" viewBox="0 0 120 40" fill="none" xmlns="http://www.w3.org/2000/svg">
<g>
<path d="M71.3063 35.6119V32.8019L71.2507 32.8272C70.6183 33.1332 69.9304 33.3077 69.2247 33.3406C68.4948 33.3962 67.7697 33.183 67.186 32.7412C66.7698 32.4199 66.4597 31.9811 66.2957 31.4816C66.1186 30.9358 66.0984 30.3512 66.2375 29.7945C66.3691 29.2254 66.6878 28.717 67.1405 28.3553C67.5452 28.0164 68.0384 27.8039 68.562 27.7432C69.4864 27.6397 70.4207 27.8141 71.2456 28.244L71.3063 28.2769V25.4517L71.1773 25.4163C70.3518 25.1528 69.4857 25.0397 68.6202 25.0824C67.8317 25.1022 67.0552 25.2793 66.3362 25.6034C65.6103 25.9373 64.9704 26.4305 64.467 27.0477C63.6991 28.0178 63.2729 29.2142 63.2546 30.4514C63.2363 31.6885 63.6269 32.8971 64.3659 33.8895C65.112 34.8456 66.1591 35.5209 67.3378 35.8016C68.5797 36.1052 69.8823 36.0596 71.0989 35.6701L71.3063 35.6119ZM43.4964 35.6119V32.8019L43.4408 32.8272C42.8085 33.1332 42.1205 33.3077 41.4148 33.3406C40.6848 33.3969 39.9595 33.1837 39.3762 32.7412C38.96 32.4204 38.6505 31.9813 38.4884 31.4816C38.3093 30.9362 38.2883 30.3513 38.4277 29.7945C38.5592 29.2254 38.8754 28.717 39.3307 28.3553C39.7353 28.0164 40.2286 27.8039 40.7521 27.7432C41.6766 27.6397 42.6109 27.8141 43.4357 28.244L43.4964 28.2769V25.4517L43.3674 25.4163C42.5419 25.1528 41.6758 25.0397 40.8103 25.0824C40.0219 25.1024 39.2454 25.2796 38.5263 25.6034C37.8009 25.9366 37.1609 26.4305 36.6546 27.0477C35.8875 28.018 35.4616 29.2142 35.4429 30.451C35.4241 31.6878 35.8136 32.8963 36.5509 33.8895C37.2963 34.8463 38.3454 35.5208 39.5254 35.8016C40.7673 36.1052 42.0674 36.0596 43.2865 35.6701L43.4964 35.6119ZM53.4215 33.2799L53.4114 35.7005L53.5884 35.7308C54.1449 35.8345 54.7039 35.9053 55.2679 35.9458C55.7611 35.9939 56.2569 36.0014 56.7526 35.9762C57.2256 35.9407 57.6935 35.8522 58.1463 35.7131C58.6774 35.5613 59.1706 35.3008 59.5905 34.9417C59.9695 34.6169 60.2594 34.2007 60.4328 33.7326C60.7343 32.9502 60.728 32.0825 60.4151 31.3045C60.2521 30.8997 59.9935 30.5404 59.6613 30.2574C59.3395 29.9696 58.9626 29.7502 58.5535 29.6124L56.7273 28.9345C56.5092 28.8414 56.3322 28.6725 56.229 28.459C56.1892 28.3715 56.1703 28.2758 56.1738 28.1797C56.1773 28.0835 56.2031 27.9895 56.2493 27.9051C56.3431 27.7514 56.478 27.627 56.6388 27.5459C56.8434 27.4474 57.0632 27.3841 57.2888 27.3588C57.6758 27.3031 58.0678 27.3057 58.4523 27.3714C58.9076 27.422 59.3578 27.5004 59.8004 27.6142L59.8965 27.6345V25.4011L59.722 25.3631C59.2694 25.2548 58.8108 25.1729 58.3486 25.1178C57.7493 25.0394 57.1426 25.0369 56.5427 25.1102C55.7839 25.1785 55.063 25.4719 54.4661 25.9449C54.0614 26.2636 53.7554 26.686 53.5783 27.1691C53.3153 27.9026 53.3127 28.7069 53.5783 29.4429C53.7149 29.8097 53.9324 30.136 54.2157 30.4066C54.461 30.6418 54.7393 30.8442 55.0428 31.0035C55.4399 31.216 55.8623 31.3804 56.2999 31.4967C56.444 31.5397 56.5882 31.5853 56.7298 31.6333L56.9448 31.7117L57.0055 31.737C57.218 31.8129 57.4153 31.9343 57.5772 32.0911C57.691 32.1974 57.7795 32.3289 57.8326 32.4731C57.8676 32.6064 57.8685 32.7465 57.8352 32.8803C57.7668 33.0961 57.6159 33.2761 57.4153 33.3811C57.1974 33.4924 56.9622 33.5659 56.7197 33.5986C56.3626 33.6542 56.0006 33.672 55.6397 33.6517C55.1671 33.6147 54.6968 33.5522 54.2309 33.4645C53.988 33.4119 53.746 33.3554 53.505 33.2951L53.4215 33.2799ZM47.1614 35.7966H49.8172V25.2569H47.1614V35.7966ZM77.923 28.3705C78.2051 28.1407 78.5297 27.9687 78.8783 27.8644C79.2269 27.7602 79.5927 27.7256 79.9546 27.7627C80.3166 27.7998 80.6677 27.9079 80.9879 28.0807C81.3081 28.2536 81.5911 28.4879 81.8207 28.7701C82.0509 29.0519 82.2233 29.3764 82.328 29.725C82.4327 30.0735 82.4676 30.4393 82.4307 30.8013C82.3938 31.1634 82.2859 31.5146 82.1131 31.8349C81.9402 32.1552 81.7059 32.4382 81.4236 32.6678L81.3806 32.7032C80.8045 33.1449 80.0782 33.343 79.3576 33.255C78.6371 33.167 77.9798 32.7998 77.527 32.2324C77.0742 31.6651 76.8621 30.9427 76.9361 30.2206C77.0102 29.4985 77.3645 28.8342 77.923 28.3705ZM74.0658 30.5305C74.0787 31.3532 74.2744 32.1627 74.6388 32.9003C75.0032 33.638 75.5271 34.2854 76.1726 34.7955C76.8181 35.3057 77.569 35.6658 78.3709 35.8499C79.1728 36.034 80.0056 36.0374 80.8089 35.8598C81.8871 35.6558 82.8777 35.1289 83.6493 34.3488C84.421 33.5688 84.9373 32.5726 85.1296 31.4923C85.3219 30.4121 85.1813 29.2989 84.7263 28.3004C84.2713 27.302 83.5234 26.4655 82.582 25.9019C81.745 25.3845 80.7862 25.0975 79.8026 25.07C78.819 25.0425 77.8456 25.2756 76.981 25.7455C76.1165 26.2153 75.3915 26.9054 74.8795 27.7457C74.3676 28.5861 74.0869 29.5468 74.0658 30.5305ZM88.0757 16.7862C88.0905 17.1247 88.2355 17.4445 88.4803 17.6787C88.7251 17.913 89.0508 18.0438 89.3897 18.0438C89.7285 18.0438 90.0543 17.913 90.2991 17.6787C90.5439 17.4445 90.6888 17.1247 90.7036 16.7862V13.8649C90.6888 13.5263 90.5439 13.2066 90.2991 12.9723C90.0543 12.738 89.7285 12.6073 89.3897 12.6073C89.0508 12.6073 88.7251 12.738 88.4803 12.9723C88.2355 13.2066 88.0905 13.5263 88.0757 13.8649V16.7862ZM80.8823 16.7862C80.9075 17.1181 81.0572 17.4282 81.3013 17.6545C81.5454 17.8808 81.866 18.0065 82.1988 18.0065C82.5317 18.0065 82.8522 17.8808 83.0963 17.6545C83.3405 17.4282 83.4901 17.1181 83.5153 16.7862V10.2378C83.4946 9.90308 83.3469 9.58887 83.1026 9.35919C82.8582 9.12951 82.5354 9.00164 82.2001 9.00164C81.8647 9.00164 81.542 9.12951 81.2976 9.35919C81.0532 9.58887 80.9056 9.90308 80.8848 10.2378L80.8823 16.7862ZM73.5827 19.4243C73.6079 19.7555 73.7572 20.065 74.0009 20.2909C74.2445 20.5167 74.5645 20.6421 74.8967 20.6421C75.2289 20.6421 75.5488 20.5167 75.7925 20.2909C76.0361 20.065 76.1855 19.7555 76.2107 19.4243V5.25758C76.1958 4.91907 76.0509 4.59934 75.8061 4.36506C75.5613 4.13077 75.2355 4 74.8967 4C74.5578 4 74.2321 4.13077 73.9873 4.36506C73.7425 4.59934 73.5975 4.91907 73.5827 5.25758V19.4243ZM66.4045 16.7862C66.4253 17.1209 66.5729 17.4352 66.8172 17.6648C67.0616 17.8945 67.3844 18.0224 67.7197 18.0224C68.0551 18.0224 68.3778 17.8945 68.6222 17.6648C68.8666 17.4352 69.0142 17.1209 69.035 16.7862V10.2378C69.0201 9.89929 68.8752 9.57957 68.6304 9.34529C68.3856 9.111 68.0598 8.98023 67.721 8.98023C67.3821 8.98023 67.0564 9.111 66.8116 9.34529C66.5668 9.57957 66.4219 9.89929 66.407 10.2378V16.7862M59.072 16.7862C59.104 17.1125 59.2563 17.4151 59.4992 17.6353C59.742 17.8555 60.0581 17.9775 60.386 17.9775C60.7138 17.9775 61.0299 17.8555 61.2728 17.6353C61.5156 17.4151 61.6679 17.1125 61.6999 16.7862V13.8649C61.6851 13.5263 61.5402 13.2066 61.2954 12.9723C61.0506 12.738 60.7248 12.6073 60.386 12.6073C60.0471 12.6073 59.7214 12.738 59.4766 12.9723C59.2318 13.2066 59.0868 13.5263 59.072 13.8649V16.7862ZM51.8128 16.7862C51.8277 17.1247 51.9726 17.4445 52.2174 17.6787C52.4622 17.913 52.788 18.0438 53.1268 18.0438C53.4657 18.0438 53.7914 17.913 54.0362 17.6787C54.281 17.4445 54.4259 17.1247 54.4408 16.7862V10.2378C54.4259 9.89929 54.281 9.57957 54.0362 9.34529C53.7914 9.111 53.4657 8.98023 53.1268 8.98023C52.788 8.98023 52.4622 9.111 52.2174 9.34529C51.9726 9.57957 51.8277 9.89929 51.8128 10.2378V16.7862ZM44.5107 19.4243C44.5256 19.7628 44.6705 20.0825 44.9153 20.3168C45.1601 20.5511 45.4858 20.6819 45.8247 20.6819C46.1635 20.6819 46.4893 20.5511 46.7341 20.3168C46.9789 20.0825 47.1238 19.7628 47.1387 19.4243V5.25758C47.1238 4.91907 46.9789 4.59934 46.7341 4.36506C46.4893 4.13077 46.1635 4 45.8247 4C45.4858 4 45.1601 4.13077 44.9153 4.36506C44.6705 4.59934 44.5256 4.91907 44.5107 5.25758V19.4243ZM37.2743 16.7862C37.3032 17.1151 37.4543 17.4213 37.6977 17.6443C37.9412 17.8673 38.2594 17.9911 38.5896 17.9911C38.9197 17.9911 39.2379 17.8673 39.4814 17.6443C39.7249 17.4213 39.8759 17.1151 39.9048 16.7862V10.2378C39.89 9.89929 39.745 9.57957 39.5002 9.34529C39.2554 9.111 38.9297 8.98023 38.5908 8.98023C38.252 8.98023 37.9262 9.111 37.6814 9.34529C37.4366 9.57957 37.2917 9.89929 37.2768 10.2378V16.7862M30 16.7862C30.0252 17.1175 30.1746 17.427 30.4182 17.6528C30.6618 17.8786 30.9818 18.0041 31.314 18.0041C31.6462 18.0041 31.9661 17.8786 32.2098 17.6528C32.4534 17.427 32.6028 17.1175 32.628 16.7862V13.8649C32.6131 13.5263 32.4682 13.2066 32.2234 12.9723C31.9786 12.738 31.6528 12.6073 31.314 12.6073C30.9751 12.6073 30.6494 12.738 30.4046 12.9723C30.1598 13.2066 30.0149 13.5263 30 13.8649V16.7862Z" fill="#ffffff"/>
</g>
</svg>
