<svg width="210" height="71" viewBox="0 0 210 71" fill="none" xmlns="http://www.w3.org/2000/svg">
<mask id="mask0_315_647" style="mask-type:luminance" maskUnits="userSpaceOnUse" x="22" y="15" width="167" height="39">
<path d="M188.88 15.543H22.7549V53.8822H188.88V15.543Z" fill="white"/>
</mask>
<g mask="url(#mask0_315_647)">
<path d="M47.2682 28.5233C50.0546 28.5586 52.3825 29.5109 54.3224 31.4155C56.2622 33.3201 57.2146 35.5774 57.2146 38.2933L57.144 50.9202C57.144 52.4368 55.8743 53.636 54.2871 53.636C52.7352 53.636 51.4654 52.4016 51.5007 50.8849L51.5712 38.258C51.6065 37.1294 51.148 36.036 50.3015 35.26C49.4903 34.4488 48.4674 34.0255 47.233 34.0255C46.0338 33.9903 44.8698 34.4841 44.0586 35.3306C43.2474 36.1418 42.8594 37.2352 42.8594 38.3638L42.7889 50.8144C42.7889 52.331 41.4838 53.5655 39.8967 53.5655C38.3095 53.5655 37.0397 52.2957 37.0397 50.7791L37.1103 38.258C37.1455 37.1646 36.7223 36.0712 35.9463 35.2953C35.0998 34.4135 34.0417 33.9903 32.772 33.955C31.6081 33.9197 30.5147 34.343 29.7034 35.1542C28.8569 35.9654 28.4337 36.953 28.4337 38.1169L28.3631 50.7086C28.3631 52.2252 27.0934 53.4597 25.5062 53.4244C23.9543 53.4244 22.6846 52.1899 22.6846 50.6733L22.7551 38.1169C22.7551 35.7538 23.6369 33.4965 25.2241 31.7682C27.305 29.5462 29.8445 28.4175 32.8073 28.4528C35.6289 28.488 38.0626 29.4756 40.0025 31.4508C42.0482 29.4756 44.4466 28.5233 47.2682 28.5233ZM82.9621 42.5258L66.7729 42.42C66.914 44.3598 67.5489 45.9118 68.7128 47.0757C69.8767 48.2044 71.3581 48.804 73.1216 48.804C74.5325 48.804 75.6964 48.4865 76.6134 47.8516C77.1425 47.4637 77.7421 46.8993 78.377 46.0881C79.1882 45.0653 80.6343 44.7831 81.7982 45.3827L81.9746 45.4885C83.4207 46.2645 83.7381 48.1338 82.68 49.3683C82.5036 49.5799 82.3273 49.7915 82.1157 49.9679C81.3397 50.7791 80.4579 51.5198 79.4703 52.0841C78.518 52.6485 77.4952 53.0364 76.4371 53.2833C75.3437 53.5302 74.1797 53.6713 72.8747 53.6713C69.2419 53.636 66.3144 52.5074 64.0923 50.2148C61.9056 47.9222 60.8122 44.8889 60.8474 41.1149C60.8827 37.3763 61.9761 34.343 64.1276 32.0504C66.3144 29.7931 69.1713 28.6644 72.7337 28.6997C76.3313 28.7349 79.1882 29.8636 81.2339 32.0857C83.2796 34.3077 84.3024 37.3763 84.3024 41.256C84.3024 41.9614 83.6676 42.5258 82.9621 42.5258ZM78.518 38.0111C77.7421 35.0837 75.8727 33.6376 72.8395 33.6023C72.1693 33.6023 71.5344 33.6728 70.8996 33.8845C70.3 34.0608 69.7356 34.3782 69.2419 34.7662C68.7481 35.1542 68.3248 35.6127 67.9721 36.1418C67.5841 36.7061 67.3372 37.3057 67.1609 37.9759L78.518 38.0111ZM109.909 42.5258L93.7197 42.42C93.8608 44.3598 94.4957 45.9118 95.6596 47.0757C96.8235 48.2044 98.3049 48.804 100.068 48.804C101.479 48.804 102.643 48.4865 103.56 47.8516C104.125 47.4637 104.689 46.8993 105.324 46.0881C106.135 45.0653 107.581 44.7831 108.745 45.3827L108.921 45.4885C110.367 46.2645 110.685 48.1338 109.627 49.3683C109.45 49.5799 109.274 49.7915 109.062 49.9679C108.286 50.7791 107.405 51.5198 106.417 52.0841C105.465 52.6485 104.442 53.0364 103.384 53.2833C102.29 53.5302 101.127 53.6713 99.8215 53.6713C96.1886 53.636 93.2259 52.5074 91.0391 50.2148C88.8523 47.9222 87.759 44.8889 87.7942 41.1149C87.8295 37.3763 88.9229 34.343 91.0744 32.0504C93.2612 29.7931 96.1181 28.6644 99.6804 28.6997C103.278 28.7349 106.135 29.8636 108.181 32.0857C110.226 34.3077 111.249 37.3763 111.249 41.256C111.249 41.9614 110.65 42.5258 109.909 42.5258ZM105.465 38.0111C104.689 35.0837 102.82 33.6376 99.7863 33.6023C99.1161 33.6023 98.4812 33.6728 97.8464 33.8845C96.6472 34.2724 95.6243 35.0484 94.9189 36.1065C94.5309 36.6708 94.284 37.2704 94.1077 37.9406L105.465 38.0111ZM141.088 15.5437C142.675 15.5437 143.945 16.8134 143.945 18.3654L143.839 30.7454C145.92 28.9818 148.178 28.5586 150.682 28.5939C153.151 28.5939 155.761 29.6872 157.454 31.4508C158.9 33.0027 159.57 35.4716 159.57 38.8576L159.5 50.8849C159.5 52.4368 158.194 53.6713 156.607 53.6713C155.02 53.6713 153.715 52.4016 153.75 50.8496L153.821 39.3514C153.821 37.4115 153.503 36.0007 152.798 35.1542C152.093 34.2724 150.964 33.8492 149.377 33.8492C147.366 33.8492 145.92 34.4488 145.109 35.6127C144.298 36.8472 143.875 38.9282 143.839 41.9262L143.769 50.8496C143.769 52.4016 142.464 53.636 140.841 53.6008C139.254 53.6008 137.984 52.331 137.984 50.7791L138.231 18.4006C138.196 16.7429 139.501 15.5084 141.088 15.5437ZM162.991 41.2208C163.027 37.87 164.261 35.0484 166.765 32.7205C169.234 30.3927 172.267 29.2287 175.83 29.264C179.392 29.2993 182.425 30.4985 184.894 32.8616C187.328 35.2247 188.527 38.1522 188.527 41.5735C188.492 45.0653 187.258 47.9222 184.753 50.2853C182.249 52.6132 179.181 53.7418 175.583 53.7066C171.985 53.6713 168.987 52.4721 166.589 50.0737C164.155 47.7458 162.956 44.7831 162.991 41.2208ZM168.635 41.3618C168.635 43.6897 169.234 45.4885 170.504 46.8641C171.809 48.2396 173.537 48.945 175.689 48.945C177.84 48.945 179.569 48.3102 180.874 46.9699C182.179 45.6296 182.849 43.8308 182.849 41.6087C182.849 39.3514 182.249 37.5526 180.944 36.2123C179.639 34.8368 177.911 34.1313 175.759 34.1313C173.643 34.1313 171.95 34.8015 170.61 36.1418C169.34 37.4468 168.67 39.2103 168.635 41.3618ZM131.6 40.868C133.329 42.1378 134.21 43.7955 134.246 45.8059V45.8765C134.246 48.3454 133.293 50.3559 131.459 51.7314C129.802 53.0012 127.509 53.6713 124.828 53.6713C121.972 53.6713 118.974 52.8601 116.363 51.414C114.988 50.6733 114.565 48.945 115.446 47.64C115.975 46.8993 116.822 46.4408 117.739 46.4408C118.233 46.4408 118.691 46.5466 119.079 46.7935C121.054 47.8869 123.1 48.4865 124.97 48.4865C127.897 48.4865 128.214 47.0757 128.214 46.4408V46.3703C128.214 45.1358 126.521 44.5362 123.77 43.725C123.594 43.6544 123.382 43.6192 123.206 43.5486C121.372 43.0548 119.467 42.42 117.986 41.3618C116.222 40.0921 115.376 38.4344 115.376 36.2476V36.177C115.376 31.7329 119.115 28.6291 124.405 28.6291C126.627 28.6291 129.096 29.1582 131.318 30.181C131.988 30.4985 132.553 31.0628 132.8 31.7682C133.047 32.4736 132.941 33.2496 132.588 33.8845C132.094 34.731 131.177 35.26 130.19 35.26C129.802 35.26 129.378 35.1895 129.026 35.0131C127.297 34.2372 125.675 33.8139 124.299 33.8139C122.571 33.8139 121.442 34.5193 121.442 35.6127V35.6833C121.442 36.953 123.664 37.6584 126.063 38.3991L126.521 38.5402C128.214 39.1045 130.084 39.7747 131.6 40.868Z" fill="#ffffff" />
</g>
</svg>
