<svg width="120" height="40" viewBox="0 0 120 40" fill="none" xmlns="http://www.w3.org/2000/svg">
<g>
<path d="M29.324 7C36.5 7 42.324 12.824 42.324 20C42.324 27.176 36.5 33 29.324 33C22.148 33 16.324 27.176 16.324 20C16.324 12.824 22.148 7 29.324 7ZM29.324 10.432C24.02 10.432 19.756 14.696 19.756 20C19.756 25.304 24.02 29.568 29.324 29.568C34.628 29.568 38.892 25.304 38.892 20C38.892 14.696 34.628 10.432 29.324 10.432ZM96.144 15.788C99.992 15.788 102.748 18.596 102.748 21.924V21.976C102.748 25.304 99.992 28.164 96.092 28.164C92.244 28.164 89.488 25.356 89.488 22.028V21.976C89.488 18.648 92.244 15.788 96.144 15.788ZM51.372 12.148C51.528 12.096 51.684 12.252 51.684 12.356V16.1H58.6C58.756 16.1 58.86 16.204 58.912 16.308L59.484 18.44L60.004 20.572L60.056 20.676L60.108 20.468L61.408 16.152C61.46 16.048 61.616 15.944 61.72 15.944H65.152C65.308 15.944 65.412 16.048 65.464 16.152L66.816 20.78L66.868 20.572L68.012 16.256C68.064 16.152 68.22 16.048 68.324 16.048H77.164C77.268 16.048 77.372 16.152 77.372 16.308V27.644C77.372 27.748 77.268 27.852 77.164 27.852H72.744C72.64 27.852 72.536 27.748 72.536 27.644V16.724L69.208 27.644C69.156 27.748 69 27.852 68.896 27.852H65.256C65.1 27.852 64.996 27.748 64.944 27.644L64.216 25.356L63.436 22.86L61.876 27.696C61.824 27.8 61.668 27.904 61.564 27.904H57.924C57.768 27.904 57.664 27.8 57.612 27.696L54.336 16.828V19.636C54.336 19.74 54.232 19.844 54.128 19.844H51.632V22.808C51.632 23.692 52.048 24.004 52.828 24.004C53.244 24.004 53.608 23.952 54.076 23.744C54.18 23.744 54.336 23.796 54.336 23.952V27.384C53.556 27.8 52.412 28.06 51.216 28.06C48.356 28.06 46.796 26.708 46.796 23.848V19.792H45.652C45.548 19.792 45.444 19.688 45.444 19.584V16.256C45.444 16.152 45.548 16.048 45.652 16.048H46.796V13.708C46.796 13.604 46.848 13.552 47.004 13.5L51.372 12.148ZM82.988 12.096C83.092 12.096 83.196 12.2 83.196 12.304V27.644C83.196 27.748 83.092 27.852 82.988 27.852H78.568C78.464 27.852 78.36 27.748 78.36 27.644V12.304C78.36 12.2 78.464 12.096 78.568 12.096H82.988ZM88.812 16.048C88.916 16.048 89.02 16.152 89.02 16.308V27.644C89.02 27.748 88.916 27.852 88.812 27.852H84.392C84.288 27.852 84.184 27.748 84.184 27.644V16.256C84.184 16.152 84.288 16.048 84.392 16.048H88.812ZM32.548 20.52C34.0414 20.52 35.252 21.7306 35.252 23.224C35.252 24.7174 34.0414 25.928 32.548 25.928C31.0546 25.928 29.844 24.7174 29.844 23.224C29.844 21.7306 31.0546 20.52 32.548 20.52ZM26.1 20.52C27.5934 20.52 28.804 21.7306 28.804 23.224C28.804 24.7174 27.5934 25.928 26.1 25.928C24.6066 25.928 23.396 24.7174 23.396 23.224C23.396 21.7306 24.6066 20.52 26.1 20.52ZM96.092 19.844C95 19.844 94.22 20.728 94.22 21.872V21.924C94.22 23.068 95.052 24.004 96.144 24.004C97.236 24.004 98.016 23.12 98.016 21.976C98.016 20.78 97.184 19.844 96.092 19.844ZM32.548 14.072C34.0414 14.072 35.252 15.2826 35.252 16.776C35.252 18.2694 34.0414 19.48 32.548 19.48C31.0546 19.48 29.844 18.2694 29.844 16.776C29.844 15.2826 31.0546 14.072 32.548 14.072ZM26.1 14.072C27.5934 14.072 28.804 15.2826 28.804 16.776C28.804 18.2694 27.5934 19.48 26.1 19.48C24.6066 19.48 23.396 18.2694 23.396 16.776C23.396 15.2826 24.6066 14.072 26.1 14.072ZM77.216 12.096C77.372 12.096 77.476 12.2 77.424 12.304V14.956C77.424 15.06 77.32 15.164 77.216 15.164H72.64C72.536 15.164 72.432 15.06 72.432 14.956V12.304C72.432 12.2 72.536 12.096 72.64 12.096H77.216ZM88.864 12.096C89.02 12.096 89.124 12.2 89.072 12.304V14.956C89.072 15.06 88.968 15.164 88.864 15.164H84.288C84.184 15.164 84.08 15.06 84.08 14.956V12.304C84.08 12.2 84.184 12.096 84.288 12.096H88.864Z" fill="#ffffff"/>
</g>
</svg>
