<?xml version="1.0" encoding="UTF-8"?><svg id="Layer_2" xmlns="http://www.w3.org/2000/svg" xmlns:xlink="http://www.w3.org/1999/xlink" viewBox="0 0 128 128"><defs><style>.cls-1{clip-path:url(#clippath);}.cls-2{fill:none;}.cls-2,.cls-3,.cls-4,.cls-5,.cls-6,.cls-7,.cls-8,.cls-9,.cls-10,.cls-11,.cls-12,.cls-13,.cls-14,.cls-15,.cls-16,.cls-17,.cls-18,.cls-19{stroke-width:0px;}.cls-3{fill:#f9e8ca;}.cls-4{fill:#f5cec1;}.cls-5{fill:#f9b485;}.cls-6{fill:#ee8062;}.cls-7{fill:#99afc4;}.cls-8{fill:#f8e9d8;}.cls-9{fill:#7691ad;}.cls-10{fill:#cce4d2;}.cls-20{clip-path:url(#clippath-1);}.cls-21{clip-path:url(#clippath-4);}.cls-22{clip-path:url(#clippath-3);}.cls-11{fill:#ffa766;}.cls-12{fill:#2e475d;}.cls-23{opacity:.65;}.cls-13{fill:#d44325;}.cls-14{fill:#ffcec2;}.cls-15{fill:#cc6d29;}.cls-16{fill:#fef4ea;}.cls-17{fill:#fff;}.cls-18{fill:#213343;}.cls-19{fill:#ec6744;}</style><clipPath id="clippath"><rect class="cls-2" x="4" y="8.15" width="120" height="111.69"/></clipPath><clipPath id="clippath-1"><rect class="cls-2" x="4" y="8.15" width="120" height="111.69"/></clipPath><clipPath id="clippath-3"><circle class="cls-2" cx="34.73" cy="92.88" r="15.8"/></clipPath><clipPath id="clippath-4"><circle class="cls-2" cx="34.73" cy="48.03" r="15.8"/></clipPath></defs><g class="cls-1"><path class="cls-19" d="M124,18.25l-120,.16v-6.41c0-2.04,1.65-3.69,3.69-3.69l112.6-.16c2.04,0,3.7,1.65,3.7,3.69v6.41Z"/></g><rect class="cls-16" x="5.02" y="18.41" width="117.96" height="100.41"/><rect class="cls-17" x="64.23" y="18.41" width="58.74" height="100.41"/><path class="cls-19" d="M6.04,19.43h115.92v98.38H6.04V19.43ZM4,119.85h119.99V17.39H4v102.45Z"/><g class="cls-20"><path class="cls-19" d="M120.29,8.17l-56.06.1v10.07l59.77-.1v-6.41c-.02-2.03-1.68-3.66-3.71-3.66"/><path class="cls-4" d="M8.9,11.87c1.05,0,1.9.85,1.9,1.9s-.85,1.9-1.9,1.9-1.9-.85-1.9-1.9.85-1.9,1.9-1.9"/><path class="cls-3" d="M14.64,11.86c1.05,0,1.9.85,1.9,1.9s-.85,1.9-1.9,1.9-1.9-.85-1.9-1.9.85-1.9,1.9-1.9"/><path class="cls-10" d="M20.47,11.86c1.05,0,1.9.85,1.9,1.9s-.85,1.9-1.9,1.9-1.9-.85-1.9-1.9.85-1.9,1.9-1.9"/></g><rect class="cls-16" x="48.04" y="78.1" width="8.35" height="2.78"/><circle class="cls-13" cx="34.73" cy="92.88" r="15.8"/><g class="cls-22"><rect class="cls-5" x="31.34" y="98.02" width="7.25" height="4.87"/><g class="cls-23"><path class="cls-15" d="M38.6,100.32c-.65.17-1.56.16-2.26.16h0c-1.27.08-4.34.13-5.44-2.28v-.18h7.7v2.3Z"/></g><path class="cls-5" d="M34.92,78.96h0c-3.97,0-7.18,3.22-7.18,7.18v6.56c0,3.97,3.22,7.18,7.18,7.18h0c3.97,0,7.18-3.22,7.18-7.18v-6.56c0-3.97-3.22-7.18-7.18-7.18Z"/><path class="cls-11" d="M33.63,90.46c.04.71.62,1.27,1.34,1.27s1.3-.56,1.34-1.27h-2.67Z"/><path class="cls-11" d="M34.92,78.94h0c-.68,0-1.33.09-1.95.27,3.02.85,5.23,3.62,5.23,6.92v6.58c0,3.29-2.21,6.07-5.23,6.92.62.17,1.27.27,1.95.27h0c3.97,0,7.18-3.22,7.18-7.18v-6.58c0-3.97-3.22-7.18-7.18-7.18Z"/><rect class="cls-5" x="26.73" y="88.09" width="1.92" height="4.87" rx=".96" ry=".96"/><rect class="cls-11" x="41.14" y="88.09" width="1.92" height="4.87" rx=".96" ry=".96"/><path class="cls-7" d="M38.81,100.95c-1.03.94-2.4,1.52-3.9,1.52s-2.87-.57-3.89-1.51c-4.21,1.58-7.2,5.64-7.2,10.39v5.5h22.2v-5.5c0-4.76-3-8.82-7.21-10.4Z"/><path class="cls-17" d="M34.91,103.39c1.83,0,3.47-.86,4.52-2.19-.21-.09-.41-.18-.63-.26-1.03.94-2.4,1.52-3.9,1.52s-2.87-.57-3.89-1.51c-.21.08-.42.17-.63.26,1.06,1.33,2.69,2.18,4.52,2.18Z"/></g><circle class="cls-13" cx="34.73" cy="48.03" r="15.8"/><g class="cls-21"><rect class="cls-5" x="31.34" y="53.18" width="7.25" height="4.87"/><g class="cls-23"><path class="cls-15" d="M38.6,55.48c-.65.17-1.56.16-2.26.16h0c-1.27.08-4.34.13-5.44-2.28v-.18h7.7v2.3Z"/></g><path class="cls-5" d="M34.92,34.11h0c-3.97,0-7.18,3.22-7.18,7.18v6.56c0,3.97,3.22,7.18,7.18,7.18h0c3.97,0,7.18-3.22,7.18-7.18v-6.56c0-3.97-3.22-7.18-7.18-7.18Z"/><path class="cls-11" d="M33.63,45.61c.04.71.62,1.27,1.34,1.27s1.3-.56,1.34-1.27h-2.67Z"/><path class="cls-11" d="M34.92,34.1h0c-.68,0-1.33.09-1.95.27,3.02.85,5.23,3.62,5.23,6.92v6.58c0,3.29-2.21,6.07-5.23,6.92.62.17,1.27.27,1.95.27h0c3.97,0,7.18-3.22,7.18-7.18v-6.58c0-3.97-3.22-7.18-7.18-7.18Z"/><rect class="cls-5" x="26.73" y="43.24" width="1.92" height="4.87" rx=".96" ry=".96"/><rect class="cls-11" x="41.14" y="43.24" width="1.92" height="4.87" rx=".96" ry=".96"/><path class="cls-9" d="M38.81,56.1c-1.03.94-2.4,1.52-3.9,1.52s-2.87-.57-3.89-1.51c-4.21,1.58-7.2,5.64-7.2,10.39v5.5h22.2v-5.5c0-4.76-3-8.82-7.21-10.4Z"/><path class="cls-17" d="M34.91,58.55c1.83,0,3.47-.86,4.52-2.19-.21-.09-.41-.18-.63-.26-1.03.94-2.4,1.52-3.9,1.52s-2.87-.57-3.89-1.51c-.21.08-.42.17-.63.26,1.06,1.33,2.69,2.18,4.52,2.18Z"/></g><rect class="cls-14" x="30.61" y="12.22" width="71.7" height="3.95" rx="1.88" ry="1.88"/><rect class="cls-14" x="107.32" y="12.22" width="10.17" height="3.95" rx="1.88" ry="1.88"/><rect class="cls-8" x="6.04" y="19.43" width="115.92" height="7.92"/><path class="cls-12" d="M52.36,54.82c-2.69,0-4.95-1.64-4.97-1.66l-.55-.4-.55.4s-2.28,1.66-4.97,1.66h-.92v4.3c0,3.88,2.47,7.26,6.15,8.49l.29.1.29-.1c3.68-1.23,6.15-4.61,6.15-8.49v-4.3h-.92Z"/><path class="cls-18" d="M53.28,59.12v-4.3h-.92c-2.69,0-4.95-1.64-4.97-1.66l-.55-.4v14.95l.29-.1c3.68-1.23,6.15-4.61,6.15-8.49Z"/><g id="Shape"><path class="cls-17" d="M45.91,62.17c-.14,0-.27-.05-.37-.15l-1.67-1.67c-.1-.1-.15-.23-.15-.37s.06-.27.15-.37c.1-.1.23-.15.37-.15s.27.05.37.15l1.3,1.3,3.16-3.16c.1-.1.23-.15.37-.15h0c.14,0,.27.05.37.15.21.21.21.54,0,.75l-3.54,3.54c-.1.1-.23.15-.37.15h0Z"/></g><path class="cls-12" d="M52.36,100.21c-2.69,0-4.95-1.64-4.97-1.66l-.55-.4-.55.4s-2.28,1.66-4.97,1.66h-.92v4.3c0,3.88,2.47,7.26,6.15,8.49l.29.1.29-.1c3.68-1.23,6.15-4.61,6.15-8.49v-4.3h-.92Z"/><path class="cls-18" d="M53.28,104.52v-4.3h-.92c-2.69,0-4.95-1.64-4.97-1.66l-.55-.4v14.95l.29-.1c3.68-1.23,6.15-4.61,6.15-8.49Z"/><g id="Shape-2"><path class="cls-17" d="M45.91,107.57c-.14,0-.27-.05-.37-.15l-1.67-1.67c-.1-.1-.15-.23-.15-.37s.06-.27.15-.37c.1-.1.23-.15.37-.15s.27.05.37.15l1.3,1.3,3.16-3.16c.1-.1.23-.15.37-.15h0c.14,0,.27.05.37.15.21.21.21.54,0,.75l-3.54,3.54c-.1.1-.23.15-.37.15h0Z"/></g><rect class="cls-19" x="70.36" y="39.12" width="23.24" height="4.2" rx="1.99" ry="1.99"/><rect class="cls-6" x="70.36" y="45.94" width="46.37" height="4.2" rx="1.99" ry="1.99"/><rect class="cls-6" x="70.36" y="52.76" width="46.37" height="4.2" rx="1.99" ry="1.99"/><rect class="cls-19" x="70.36" y="84.51" width="23.24" height="4.2" rx="1.99" ry="1.99"/><rect class="cls-6" x="70.36" y="91.33" width="46.37" height="4.2" rx="1.99" ry="1.99"/><rect class="cls-6" x="70.36" y="98.15" width="46.37" height="4.2" rx="1.99" ry="1.99"/></svg>