<svg id="Layer_2" data-name="Layer 2" xmlns="http://www.w3.org/2000/svg" viewBox="0 0 128 128"><defs><style>.cls-1{fill:#192733;}.cls-2{fill:#eaf0f6;}.cls-3{fill:#c4c1e4;}.cls-13,.cls-14,.cls-16,.cls-22,.cls-4{fill:#fff;}.cls-5{fill:#f6f9fc;}.cls-6{fill:#3e5974;}.cls-7{fill:#f56271;}.cls-8{fill:#ffbc4b;}.cls-9{fill:#7bc492;}.cls-10{opacity:0.05;}.cls-11{fill:#b6c7d6;}.cls-12{fill:#7691ad;}.cls-13,.cls-22,.cls-24{stroke:#fcead7;}.cls-13{stroke-miterlimit:10;stroke-width:0.35px;}.cls-13,.cls-14,.cls-23{fill-rule:evenodd;}.cls-14,.cls-16{stroke:#fef4ea;}.cls-14,.cls-16,.cls-19,.cls-21,.cls-22,.cls-24{stroke-width:0.23px;}.cls-15,.cls-19{fill:#ffdbc1;}.cls-17,.cls-23{fill:#ff5c35;}.cls-18{fill:#0fbfbf;}.cls-19{stroke:#fff;}.cls-20{opacity:0.7;}.cls-21,.cls-24{fill:none;}.cls-21{stroke:#ff5c35;}.cls-25{fill:#ff7a59;}.cls-26{fill:#ffb824;}.cls-27{fill:#ff8933;}</style></defs><rect class="cls-1" x="8.51" y="25.17" width="110.9" height="69.18" rx="6.33"/><path class="cls-2" d="M113.08,94.75H14.85A6.74,6.74,0,0,1,8.11,88V31.51a6.74,6.74,0,0,1,6.74-6.74h98.23a6.74,6.74,0,0,1,6.73,6.74V88A6.74,6.74,0,0,1,113.08,94.75ZM14.85,25.58a5.94,5.94,0,0,0-5.94,5.93V88A5.94,5.94,0,0,0,14.85,94h98.23A5.94,5.94,0,0,0,119,88V31.51a5.94,5.94,0,0,0-5.93-5.93Z"/><rect class="cls-3" x="14.48" y="30.2" width="99.76" height="60.46"/><rect class="cls-4" x="13.08" y="30.2" width="101.98" height="60.46"/><rect class="cls-5" x="13.08" y="30.2" width="50.88" height="60.46"/><rect class="cls-6" x="13.06" y="30.09" width="102" height="3.5"/><circle class="cls-7" cx="15.92" cy="31.86" r="0.77"/><circle class="cls-8" cx="18.23" cy="31.86" r="0.77"/><circle class="cls-9" cx="20.57" cy="31.86" r="0.77"/><g class="cls-10"><ellipse cx="64" cy="101.49" rx="60" ry="1.74"/></g><path class="cls-11" d="M8.83,100.84H119c2.08,0,5-3.66,5-6.49H4C4,97.18,6.75,100.84,8.83,100.84Z"/><path class="cls-12" d="M65.16,94.32H55.32c0,1.66.92,2.29,1.24,2.29H73.1c.32,0,1.24-.63,1.24-2.29Z"/><path id="Rectangle" class="cls-13" d="M22.87,37.84h82.26a.48.48,0,0,1,.47.49V87a.47.47,0,0,1-.47.48H22.87A.47.47,0,0,1,22.4,87V38.33A.48.48,0,0,1,22.87,37.84Z"/><path id="Rectangle-2" data-name="Rectangle" class="cls-14" d="M83.32,79.44V84h19.6a.35.35,0,0,0,.35-.35v-4.2Z"/><rect id="Rectangle-3" data-name="Rectangle" class="cls-15" x="84.59" y="81.23" width="5.73" height="1.2" rx="0.47"/><rect id="Rectangle-4" data-name="Rectangle" class="cls-16" x="83.32" y="74.9" width="19.94" height="4.55"/><rect id="Rectangle-5" data-name="Rectangle" class="cls-15" x="84.59" y="76.69" width="5.73" height="1.2" rx="0.47"/><rect id="Rectangle-6" data-name="Rectangle" class="cls-16" x="83.32" y="70.35" width="19.94" height="4.55"/><rect id="Rectangle-7" data-name="Rectangle" class="cls-15" x="84.59" y="72.15" width="5.73" height="1.2" rx="0.47"/><rect id="Rectangle-8" data-name="Rectangle" class="cls-16" x="83.32" y="65.81" width="19.94" height="4.55"/><rect id="Rectangle-9" data-name="Rectangle" class="cls-15" x="84.59" y="67.61" width="5.73" height="1.2" rx="0.47"/><rect id="Rectangle-10" data-name="Rectangle" class="cls-16" x="83.32" y="61.27" width="19.94" height="4.55"/><path id="Rectangle-11" data-name="Rectangle" class="cls-14" d="M83.32,56.72v4.55h20v-4.2a.35.35,0,0,0-.35-.35Z"/><rect id="Rectangle-12" data-name="Rectangle" class="cls-17" x="84.53" y="58.4" width="15.36" height="1.2" rx="0.47"/><rect id="Rectangle-13" data-name="Rectangle" class="cls-16" x="70.16" y="79.44" width="13.15" height="4.55"/><circle id="Oval" class="cls-18" cx="72.52" cy="81.83" r="0.6"/><rect id="Rectangle-14" data-name="Rectangle" class="cls-15" x="73.6" y="81.23" width="7.88" height="1.2" rx="0.47"/><rect id="Rectangle-15" data-name="Rectangle" class="cls-16" x="70.16" y="74.9" width="13.15" height="4.55"/><circle id="Oval-2" data-name="Oval" class="cls-18" cx="72.52" cy="77.29" r="0.6"/><rect id="Rectangle-16" data-name="Rectangle" class="cls-15" x="73.6" y="76.69" width="7.88" height="1.2" rx="0.47"/><rect id="Rectangle-17" data-name="Rectangle" class="cls-16" x="70.16" y="70.35" width="13.15" height="4.55"/><circle id="Oval-3" data-name="Oval" class="cls-18" cx="72.52" cy="72.75" r="0.6"/><rect id="Rectangle-18" data-name="Rectangle" class="cls-15" x="73.6" y="72.15" width="7.88" height="1.2" rx="0.47"/><rect id="Rectangle-19" data-name="Rectangle" class="cls-16" x="70.16" y="65.81" width="13.15" height="4.55"/><circle id="Oval-4" data-name="Oval" class="cls-18" cx="72.52" cy="68.2" r="0.6"/><rect id="Rectangle-20" data-name="Rectangle" class="cls-15" x="73.6" y="67.61" width="7.88" height="1.2" rx="0.47"/><rect id="Rectangle-21" data-name="Rectangle" class="cls-16" x="70.16" y="61.27" width="13.15" height="4.55"/><circle id="Oval-5" data-name="Oval" class="cls-18" cx="72.52" cy="63.66" r="0.6"/><rect id="Rectangle-22" data-name="Rectangle" class="cls-16" x="70.16" y="56.72" width="13.15" height="4.55"/><rect id="Rectangle-23" data-name="Rectangle" class="cls-19" x="60.11" y="79.44" width="10.04" height="4.55"/><rect id="Rectangle-24" data-name="Rectangle" class="cls-4" x="62.61" y="81.23" width="5.26" height="1.2" rx="0.47"/><rect id="Rectangle-25" data-name="Rectangle" class="cls-19" x="60.11" y="74.9" width="10.04" height="4.55"/><rect id="Rectangle-26" data-name="Rectangle" class="cls-4" x="62.61" y="76.69" width="5.26" height="1.2" rx="0.47"/><rect id="Rectangle-27" data-name="Rectangle" class="cls-19" x="60.11" y="70.35" width="10.04" height="4.55"/><rect id="Rectangle-28" data-name="Rectangle" class="cls-4" x="62.61" y="72.15" width="5.26" height="1.2" rx="0.47"/><rect id="Rectangle-29" data-name="Rectangle" class="cls-19" x="60.11" y="65.81" width="10.04" height="4.55"/><rect id="Rectangle-" class="cls-4" x="62.61" y="67.61" width="5.26" height="1.2" rx="0.47"/><rect id="Rectangle-30" data-name="Rectangle" class="cls-19" x="60.11" y="61.27" width="10.04" height="4.55"/><rect id="Rectangle--2" data-name="Rectangle-" class="cls-4" x="62.61" y="63.06" width="5.26" height="1.2" rx="0.47"/><rect id="Rectangle--3" data-name="Rectangle-" class="cls-4" x="62.61" y="58.4" width="5.26" height="1.2" rx="0.47"/><rect id="Rectangle-31" data-name="Rectangle" class="cls-19" x="60.11" y="56.72" width="10.04" height="4.55"/><rect id="Rectangle-32" data-name="Rectangle" class="cls-16" x="40.8" y="79.44" width="19.36" height="4.55"/><rect id="Rectangle-33" data-name="Rectangle" class="cls-15" x="42.06" y="81.23" width="13.38" height="1.2" rx="0.47"/><rect id="Rectangle-34" data-name="Rectangle" class="cls-16" x="40.8" y="74.9" width="19.36" height="4.55"/><rect id="Rectangle-35" data-name="Rectangle" class="cls-15" x="42.06" y="76.69" width="13.38" height="1.2" rx="0.47"/><rect id="Rectangle-36" data-name="Rectangle" class="cls-16" x="40.8" y="70.35" width="19.36" height="4.55"/><rect id="Rectangle-37" data-name="Rectangle" class="cls-15" x="42.06" y="72.15" width="13.38" height="1.2" rx="0.47"/><rect id="Rectangle-38" data-name="Rectangle" class="cls-16" x="40.8" y="65.81" width="19.36" height="4.55"/><rect id="Rectangle-39" data-name="Rectangle" class="cls-15" x="42.06" y="67.61" width="13.38" height="1.2" rx="0.47"/><rect id="Rectangle--4" data-name="Rectangle-" class="cls-16" x="40.8" y="61.27" width="19.36" height="4.55"/><rect id="Rectangle-40" data-name="Rectangle" class="cls-16" x="40.8" y="56.72" width="19.36" height="4.55"/><path id="Rectangle-41" data-name="Rectangle" class="cls-14" d="M24.73,79.44v4.2a.35.35,0,0,0,.35.35H40.75V79.44Z"/><rect id="Rectangle-42" data-name="Rectangle" class="cls-16" x="24.73" y="74.9" width="16.01" height="4.55"/><rect id="Rectangle-43" data-name="Rectangle" class="cls-16" x="24.73" y="70.35" width="16.01" height="4.55"/><rect id="Rectangle-44" data-name="Rectangle" class="cls-16" x="24.73" y="65.81" width="16.01" height="4.55"/><rect id="Rectangle-45" data-name="Rectangle" class="cls-16" x="24.73" y="61.27" width="16.01" height="4.55"/><path id="Rectangle-46" data-name="Rectangle" class="cls-14" d="M24.73,61.27h16V56.72H25.08a.35.35,0,0,0-.35.35Z"/><g id="Search-Bar"><rect id="Rectangle-47" data-name="Rectangle" class="cls-15" x="95.26" y="52.18" width="8.12" height="2.56" rx="0.47"/></g><g id="Search-Bar-Copy"><rect id="Rectangle-48" data-name="Rectangle" class="cls-17" x="95.93" y="43.32" width="7.46" height="2.1" rx="0.47"/></g><g id="Search-Bar-Copy-2" class="cls-20"><rect id="Rectangle-49" data-name="Rectangle" class="cls-21" x="86.72" y="43.44" width="8.62" height="1.86" rx="0.47"/></g><g id="Search-Bar-2" data-name="Search-Bar"><rect id="Rectangle-50" data-name="Rectangle" class="cls-15" x="86.42" y="52.18" width="8.12" height="2.56" rx="0.47"/></g><rect id="Rectangle-51" data-name="Rectangle" class="cls-15" x="51.13" y="52.88" width="4.54" height="1.17" rx="0.47"/><rect id="Rectangle--5" data-name="Rectangle-" class="cls-15" x="46.59" y="52.88" width="3.34" height="1.17" rx="0.47"/><rect id="Rectangle--Copy" class="cls-17" x="43.33" y="48.45" width="8.39" height="1.17" rx="0.47"/><rect id="Rectangle--6" data-name="Rectangle-" class="cls-15" x="40.14" y="52.88" width="5.26" height="1.17" rx="0.47"/><rect id="Rectangle--Copy-2" class="cls-17" x="36.88" y="48.45" width="5.26" height="1.17" rx="0.47"/><rect id="Rectangle-52" data-name="Rectangle" class="cls-22" x="24.73" y="52.06" width="12.91" height="3.03" rx="0.47"/><g id="Icons_Actions_Search" data-name="Icons/Actions/Search"><path class="cls-23" d="M35.9,53.8a.39.39,0,1,1,.39-.39A.38.38,0,0,1,35.9,53.8Zm0-.92a.53.53,0,0,1,.53.53.52.52,0,0,1-.11.32l.43.43a.07.07,0,0,1-.1.1l-.43-.43a.52.52,0,0,1-.32.11.53.53,0,1,1,0-1.06Z"/></g><path id="Rectangle-53" data-name="Rectangle" class="cls-24" d="M24.73,50.56V47.69a.35.35,0,0,1,.35-.35h9.34a.35.35,0,0,1,.35.35v2.87H35l68.26,0"/><rect id="Rectangle--7" data-name="Rectangle-" class="cls-15" x="26.18" y="48.25" width="6.88" height="1.57" rx="0.61"/><rect id="Rectangle--8" data-name="Rectangle-" class="cls-15" x="25.11" y="41.79" width="26.81" height="2.55" rx="0.99"/><rect id="Rectangle-54" data-name="Rectangle" class="cls-15" x="84.59" y="63.08" width="5.73" height="1.2" rx="0.47"/><rect id="Rectangle-55" data-name="Rectangle" class="cls-15" x="73.6" y="63.08" width="7.88" height="1.2" rx="0.47"/><rect id="Rectangle-56" data-name="Rectangle" class="cls-15" x="28.8" y="63.06" width="7.88" height="1.2" rx="0.47"/><rect id="Rectangle-57" data-name="Rectangle" class="cls-15" x="28.8" y="67.61" width="7.88" height="1.2" rx="0.47"/><rect id="Rectangle-58" data-name="Rectangle" class="cls-15" x="28.8" y="72.13" width="7.88" height="1.2" rx="0.47"/><rect id="Rectangle-59" data-name="Rectangle" class="cls-15" x="28.8" y="76.72" width="7.88" height="1.2" rx="0.47"/><rect id="Rectangle-60" data-name="Rectangle" class="cls-15" x="28.8" y="81.24" width="7.88" height="1.2" rx="0.47"/><rect id="Rectangle-61" data-name="Rectangle" class="cls-15" x="42.06" y="63.06" width="13.38" height="1.2" rx="0.47"/><rect id="Rectangle--9" data-name="Rectangle-" class="cls-17" x="62.61" y="58.4" width="5.26" height="1.2" rx="0.47"/><rect id="Rectangle-62" data-name="Rectangle" class="cls-17" x="73.6" y="58.42" width="7.88" height="1.2" rx="0.47"/><rect id="Rectangle-63" data-name="Rectangle" class="cls-17" x="28.8" y="58.4" width="7.88" height="1.2" rx="0.47"/><rect id="Rectangle-64" data-name="Rectangle" class="cls-17" x="42.06" y="58.4" width="13.38" height="1.2" rx="0.47"/><g id="mobile_payment" data-name="mobile payment"><path class="cls-25" d="M4.38,64.32a10.2,10.2,0,0,0,8.19-8.18.16.16,0,0,1,.31,0,10.2,10.2,0,0,0,8.19,8.18.16.16,0,0,1,0,.31,10.19,10.19,0,0,0-8.19,8.18.16.16,0,0,1-.31,0,10.19,10.19,0,0,0-8.19-8.18A.16.16,0,0,1,4.38,64.32Z"/><path class="cls-26" d="M105.79,23a7.85,7.85,0,0,0,6.29-6.29.12.12,0,0,1,.24,0A7.85,7.85,0,0,0,118.61,23a.12.12,0,0,1,0,.24,7.84,7.84,0,0,0-6.29,6.29.12.12,0,0,1-.24,0,7.84,7.84,0,0,0-6.29-6.29A.12.12,0,0,1,105.79,23Z"/><path class="cls-27" d="M100.36,99.85a9.6,9.6,0,0,0,7.72-7.72.15.15,0,0,1,.3,0,9.6,9.6,0,0,0,7.72,7.72.15.15,0,0,1,0,.3,9.6,9.6,0,0,0-7.72,7.72.15.15,0,0,1-.3,0,9.6,9.6,0,0,0-7.72-7.72A.15.15,0,0,1,100.36,99.85Z"/></g></svg>