<svg id="Layer_2" data-name="Layer 2" xmlns="http://www.w3.org/2000/svg" viewBox="0 0 128 128"><defs><style>.cls-1{fill:#fff;}.cls-2{fill:#ff5c35;}.cls-3{fill:#ff7a59;}.cls-4{fill:#ff8933;}.cls-5{fill:#ffcec2;}.cls-6{fill:#dbe4ed;}.cls-7{fill:#d44325;}</style></defs><path class="cls-1" d="M63.8,64.37h0v37.32a37.19,37.19,0,0,0,26.36-10.9Z"/><path class="cls-1" d="M26.47,64.37A37.32,37.32,0,0,0,63.8,101.69V64.37Z"/><path class="cls-2" d="M63.8,27.05A37.32,37.32,0,0,0,26.47,64.37H63.8Z"/><path class="cls-3" d="M63.73,27.05a37.32,37.32,0,0,1,37.32,37.32H63.73Z"/><polygon class="cls-4" points="63.8 64.37 63.73 64.37 63.73 64.49 63.8 64.37"/><path class="cls-5" d="M101.06,64.37H63.8L90.12,90.76A37.17,37.17,0,0,0,101.06,64.37Z"/><circle class="cls-6" cx="32.52" cy="77.03" r="2.84"/><circle class="cls-6" cx="44.64" cy="92.01" r="2.84"/><circle class="cls-6" cx="81.99" cy="92.68" r="2.84"/><circle class="cls-6" cx="63.51" cy="98.16" r="2.84"/><path class="cls-1" d="M63.73,28.5h.12a1.82,1.82,0,0,1,1.82,1.82V64a0,0,0,0,1,0,0H61.9a0,0,0,0,1,0,0V30.32A1.82,1.82,0,0,1,63.73,28.5Z"/><path class="cls-1" d="M77.61,49.39h.12a1.82,1.82,0,0,1,1.82,1.82V79.42a0,0,0,0,1,0,0H75.79a0,0,0,0,1,0,0V51.22a1.82,1.82,0,0,1,1.82-1.82Z" transform="translate(142.08 -13.26) rotate(90)"/><circle class="cls-7" cx="63.8" cy="64.14" r="3.38"/><path class="cls-2" d="M64,11.88h0V20.6h0a43.41,43.41,0,1,1,0,86.81h0v8.72h0A52.12,52.12,0,0,0,64,11.88Z"/><path class="cls-3" d="M64,107.4a43.4,43.4,0,0,1,0-86.8V11.88a52.12,52.12,0,0,0,0,104.24Z"/><path class="cls-1" d="M64,106.75A42.75,42.75,0,1,1,106.75,64,42.8,42.8,0,0,1,64,106.75Zm0-83.22A40.47,40.47,0,1,0,104.47,64,40.51,40.51,0,0,0,64,23.53Z"/><path class="cls-2" d="M10.6,95.53a25.79,25.79,0,0,0,25.78,25.79V95.53Z"/><path class="cls-3" d="M62.12,95.53a25.79,25.79,0,0,1-25.78,25.79V95.53Z"/><path class="cls-3" d="M36.38,69.75A25.78,25.78,0,0,0,10.6,95.53H36.38Z"/><path class="cls-5" d="M36.38,69.75A25.78,25.78,0,0,1,62.16,95.53H36.38Z"/><path class="cls-1" d="M36.38,122.26l-1,0A26.72,26.72,0,1,1,63.1,95.53v1H63a26.76,26.76,0,0,1-25.72,25.76v0Zm0-51.56a24.84,24.84,0,0,0,0,49.67h0A24.87,24.87,0,0,0,61.17,95.53v-.94h0A24.87,24.87,0,0,0,36.38,70.7Z"/><g id="Shape"><path class="cls-1" d="M32.46,105.18a2.17,2.17,0,0,1-1.56-.65l-7-7A2.22,2.22,0,0,1,27,94.37l5.45,5.45L45.75,86.54a2.21,2.21,0,0,1,1.57-.65h0a2.19,2.19,0,0,1,1.57.65,2.22,2.22,0,0,1,0,3.14L34,104.53a2.19,2.19,0,0,1-1.56.65Z"/></g><path class="cls-1" d="M25.72,109.8A4.61,4.61,0,0,1,22,106.12a.07.07,0,0,0-.14,0,4.61,4.61,0,0,1-3.71,3.68.07.07,0,0,0,0,.14,4.6,4.6,0,0,1,3.71,3.68.07.07,0,0,0,.14,0,4.6,4.6,0,0,1,3.71-3.68A.07.07,0,0,0,25.72,109.8Z"/><path class="cls-2" d="M58.75,73.17A3.48,3.48,0,0,1,56,70.38a.06.06,0,0,0-.11,0A3.48,3.48,0,0,1,53,73.17a.05.05,0,0,0,0,.1,3.47,3.47,0,0,1,2.8,2.78.06.06,0,0,0,.11,0,3.47,3.47,0,0,1,2.8-2.78A.05.05,0,0,0,58.75,73.17Z"/><path class="cls-3" d="M18.73,115.81a2.56,2.56,0,0,1-2.06-2c0-.05-.08-.05-.08,0a2.58,2.58,0,0,1-2.06,2,0,0,0,1,0,0,.07,2.58,2.58,0,0,1,2.06,2.05s.07,0,.08,0a2.56,2.56,0,0,1,2.06-2.05S18.77,115.81,18.73,115.81Z"/></svg>